<svg width="52" height="53" viewBox="0 0 52 53" fill="none" xmlns="http://www.w3.org/2000/svg">
<path d="M26 24.6225C23.2631 23.2221 19.4315 16.737 26 2C28.6315 8.46358 32.3157 22.0371 26 24.6225Z" stroke="#63725A"/>
<path d="M27.8947 26.072C29.2632 23.2711 35.6 19.3499 50 26.072C43.6842 28.7651 30.4211 32.5355 27.8947 26.072Z" stroke="#63725A"/>
<path d="M24.1053 26.5755C22.7368 29.3764 16.4 33.2976 2 26.5755C8.31579 23.8823 21.5789 20.1119 24.1053 26.5755Z" stroke="#63725A"/>
<path d="M26.3294 28.1775C29.0662 29.578 32.8978 36.0631 26.3294 50.8C23.6978 44.3365 20.0136 30.763 26.3294 28.1775Z" stroke="#63725A"/>
<path d="M34.8421 14.604L33.5789 16.8663L34.8421 19.1285L36.1053 16.8663L34.8421 14.604Z" fill="#63725A"/>
<path d="M34.8421 33.9946L33.5789 36.2569L34.8421 38.5191L36.1053 36.2569L34.8421 33.9946Z" fill="#63725A"/>
<path d="M17.1579 33.9946L15.8947 36.2569L17.1579 38.5191L18.4211 36.2569L17.1579 33.9946Z" fill="#63725A"/>
<path d="M17.1579 15.2502L15.8947 17.5125L17.1579 19.7747L18.4211 17.5125L17.1579 15.2502Z" fill="#63725A"/>
</svg>
